<?xml version="1.0" encoding="utf-8"?>
<!-- Generator: Adobe Illustrator 16.0.3, SVG Export Plug-In . SVG Version: 6.00 Build 0)  -->
<!DOCTYPE svg PUBLIC "-//W3C//DTD SVG 1.1//EN" "http://www.w3.org/Graphics/SVG/1.1/DTD/svg11.dtd">
<svg version="1.1" id="圖層_1" xmlns="http://www.w3.org/2000/svg" xmlns:xlink="http://www.w3.org/1999/xlink" x="0px" y="0px"
	 width="179.375px" height="27.625px" viewBox="0 0 179.375 27.625" enable-background="new 0 0 179.375 27.625"
	 xml:space="preserve">
<g>
	<g>
		<polygon fill="#FFFFFF" points="15.621,4.206 13.899,4.206 14.947,2.277 16.667,2.277 		"/>
	</g>
	<g>
		<polygon fill="#FFFFFF" points="40.405,27.053 37.118,27.053 44.314,13.898 47.604,13.898 		"/>
	</g>
	<g>
		<polygon fill="#FFFFFF" points="53.584,27.053 50.311,27.053 53.306,21.574 56.576,21.574 		"/>
	</g>
	<g>
		<rect x="53.297" y="11.392" fill="#FFFFFF" width="3.255" height="10.253"/>
	</g>
	<g>
		<polygon fill="#FFFFFF" points="78.062,27.053 74.788,27.053 77.783,21.574 81.056,21.574 		"/>
	</g>
	<g>
		<rect x="77.774" y="0.812" fill="#FFFFFF" width="3.253" height="20.833"/>
	</g>
	<g>
		<polygon fill="#FFFFFF" points="58.376,12.815 51.834,0.884 55.456,0.884 61.995,12.815 		"/>
	</g>
	<g>
		<polygon fill="#FFFFFF" points="36.362,12.815 42.864,0.884 40.535,0.884 34.032,12.815 		"/>
	</g>
	<g>
		<polygon fill="#FFFFFF" points="11.963,22.862 14.19,17.944 12.222,17.944 9.992,22.862 		"/>
	</g>
	<g>
		<polygon fill="#FFFFFF" points="66.918,18.862 71.729,10.066 69.76,10.066 64.947,18.862 		"/>
	</g>
	<g>
		<polygon fill="#FFFFFF" points="75.388,18.862 70.578,10.066 72.546,10.066 77.359,18.862 		"/>
	</g>
	<g>
		<polygon fill="#FFFFFF" points="8.371,27.081 5.404,27.081 5.404,3.596 8.371,2.617 		"/>
	</g>
	<g>
		<rect x="11.27" y="0.884" fill="#FFFFFF" width="15.258" height="1.733"/>
	</g>
	<g>
		<rect x="44.627" y="0.884" fill="#FFFFFF" width="10.11" height="1.733"/>
	</g>
	<g>
		<rect x="79.623" y="0.814" fill="#FFFFFF" width="12.257" height="1.593"/>
	</g>
	<g>
		<rect x="79.623" y="9.808" fill="#FFFFFF" width="12.973" height="1.593"/>
	</g>
	<g>
		<rect x="38.846" y="11.369" fill="#FFFFFF" width="17.229" height="1.736"/>
	</g>
	<g>
		<rect x="23.682" y="3.596" fill="#FFFFFF" width="3.254" height="8.366"/>
	</g>
	<g>
		<rect x="11.219" y="3.596" fill="#FFFFFF" width="3.258" height="8.366"/>
	</g>
	<g>
		<rect x="14.766" y="15.979" fill="#FFFFFF" width="8.475" height="1.522"/>
	</g>
	<g>
		<polygon fill="#FFFFFF" points="26.846,27.391 12.992,22.963 13.924,20.77 26.846,24.868 		"/>
	</g>
	<g>
		<polygon fill="#FFFFFF" points="11.121,27.391 26.825,22.331 26.825,19.777 11.121,24.868 		"/>
	</g>
	<g>
		<rect x="12.486" y="6.133" fill="#FFFFFF" width="13.182" height="1.592"/>
	</g>
	<g>
		<rect x="12.486" y="8.68" fill="#FFFFFF" width="13.182" height="1.59"/>
	</g>
	<g>
		<rect x="65.626" y="6.189" fill="#FFFFFF" width="11.05" height="1.734"/>
	</g>
	<g>
		<rect x="69.526" y="0.301" fill="#FFFFFF" width="3.255" height="26.782"/>
	</g>
	<g>
		<rect x="85.869" y="10.906" fill="#FFFFFF" width="3.256" height="16.146"/>
	</g>
	<g>
		<rect x="12.486" y="3.584" fill="#FFFFFF" width="13.182" height="1.592"/>
	</g>
	<g>
		<rect x="10.064" y="11.225" fill="#FFFFFF" width="17.924" height="1.738"/>
	</g>
	<polygon fill="#FFFFFF" points="8.371,2.734 0.417,9.208 0.417,6.775 8.371,0.301 	"/>
	<g>
		<polygon fill="#FFFFFF" points="16.352,17.51 13.814,17.51 16.033,12.634 18.566,12.634 		"/>
	</g>
	<g>
		<polygon fill="#FFFFFF" points="21.599,17.51 24.133,17.51 22.431,13.751 19.895,13.751 		"/>
	</g>
	<g>
		<polygon fill="#FFFFFF" points="25.324,17.51 27.859,17.51 26.156,13.751 23.62,13.751 		"/>
	</g>
	<g>
		<polygon fill="#FFFFFF" points="12.621,17.51 10.086,17.51 11.789,13.751 14.324,13.751 		"/>
	</g>
	<g>
		<polygon fill="#FFFFFF" points="28.334,15.821 30.869,15.821 28.723,11.225 26.188,11.225 		"/>
	</g>
	<rect x="12.186" y="18.589" fill="#FFFFFF" width="14.64" height="1.734"/>
	<g>
		<rect x="23.572" y="18.589" fill="#FFFFFF" width="3.253" height="3.271"/>
	</g>
</g>
<g>
	<path fill="#FFFFFF" d="M109.781,14.818c-0.339,1.59-0.821,3.27-1.465,4.609c0.34,0.197,0.715,0.501,1.305,0.84
		c1.232,0.751,2.876,0.858,4.967,0.858c2.18,0,5.182-0.161,7.165-0.394c-0.196,0.429-0.464,1.251-0.5,1.697
		c-1.376,0.09-4.646,0.196-6.736,0.196c-2.341,0-3.877-0.196-5.182-0.946c-0.715-0.411-1.358-1.019-1.751-1.019
		c-0.394,0-1.019,1.144-1.501,2.233l-1.126-1.537c0.607-0.804,1.251-1.482,1.805-1.857c0.482-0.965,0.894-2.252,1.18-3.467h-2.306
		c0.447-1.055,0.966-2.502,1.43-3.896h-1.805v-1.519h3.842c-0.375,1.286-0.894,2.752-1.322,3.984h1.001l0.25-0.071L109.781,14.818z
		 M107.119,9.887c-0.214-0.769-0.661-2.037-0.929-2.984l1.447-0.446c0.339,0.929,0.75,2.126,0.982,2.895L107.119,9.887z
		 M112.551,11.209h-2.697V9.958h4.859V8.832h-3.77V7.617h3.77V6.402h1.626v1.215h3.842v1.215h-3.842v1.126h4.968v1.251h-2.823
		l0.625,0.16c-0.304,0.555-0.607,1.126-0.875,1.555h2.858v1.233h-4.753v1h4.092v1.197h-4.092v1.108h4.807v1.25h-4.807v1.645h-1.626
		v-1.645h-4.663v-1.25h4.663v-1.108H110.8v-1.197h3.913v-1h-4.538v-1.233h2.448c-0.126-0.464-0.394-1.09-0.68-1.572L112.551,11.209z
		 M116.732,12.781c0.214-0.447,0.482-1.09,0.679-1.572h-3.913c0.304,0.5,0.607,1.125,0.697,1.572l-0.607,0.143h3.627L116.732,12.781
		z"/>
	<path fill="#FFFFFF" d="M133.496,6.456c-0.019,0.679-0.036,1.608-0.125,2.662c0.25,2.233,1.34,9.363,7.575,12.133
		c-0.482,0.375-0.982,0.965-1.215,1.411c-4.198-1.983-6.146-5.914-7.094-9.112c-0.893,3.358-2.787,6.968-6.825,9.202
		c-0.286-0.43-0.822-0.965-1.376-1.322c7.309-3.788,7.111-12.115,7.165-14.974H133.496z"/>
	<path fill="#FFFFFF" d="M149.099,10.602c-0.411,0.821-0.929,1.644-1.482,2.43v9.81h-1.573v-7.862
		c-0.464,0.519-0.965,0.983-1.447,1.395c-0.143-0.34-0.625-1.162-0.911-1.501c1.483-1.162,3.02-2.967,3.949-4.771L149.099,10.602z
		 M148.741,6.956c-1,1.537-2.572,3.217-4.02,4.307c-0.179-0.34-0.608-0.911-0.876-1.216c1.269-0.929,2.68-2.43,3.395-3.645
		L148.741,6.956z M158.622,15.943c-0.696,1.68-1.822,3.038-3.198,4.074c1.341,0.644,2.823,1.09,4.468,1.376
		c-0.34,0.34-0.787,1.019-1.001,1.447c-1.858-0.375-3.502-1.001-4.949-1.841c-1.52,0.876-3.271,1.483-5.057,1.858
		c-0.161-0.393-0.519-1.071-0.805-1.411c1.555-0.286,3.073-0.732,4.414-1.394c-0.59-0.447-1.126-0.947-1.645-1.483
		c-0.411,0.411-0.84,0.751-1.269,1.072c-0.232-0.321-0.786-0.947-1.125-1.233c0.482-0.285,0.965-0.661,1.411-1.071
		c-0.321-0.447-0.625-0.912-0.894-1.43l1.358-0.447c0.179,0.322,0.339,0.608,0.554,0.894c0.554-0.607,1.036-1.286,1.465-1.983
		c-2.269,0.144-2.751,0.215-3.127,0.357c-0.054-0.304-0.304-1.107-0.482-1.536c0.536-0.071,1.144-0.376,1.983-0.84
		c0.375-0.196,1.09-0.626,1.966-1.197c-2.305,0.107-2.787,0.196-3.056,0.304c-0.089-0.34-0.357-1.144-0.554-1.59
		c0.357-0.072,0.732-0.305,1.197-0.608c0.446-0.321,1.983-1.501,3.02-2.751l1.644,0.732c-0.982,0.965-2.09,1.912-3.198,2.662
		l2.823-0.071c0.751-0.554,1.501-1.18,2.18-1.805l1.52,0.84c-1.931,1.626-4.021,3.02-6.075,4.146l4.734-0.269
		c-0.321-0.446-0.661-0.894-0.982-1.269l1.305-0.679c0.982,1.18,2.215,2.823,2.805,3.859l-1.376,0.786
		c-0.196-0.393-0.5-0.911-0.875-1.447l-3.663,0.25c-0.215,0.429-0.465,0.876-0.751,1.287h3.932l0.286-0.072L158.622,15.943z
		 M152.422,16.873c-0.16,0.232-0.356,0.446-0.554,0.661c0.607,0.644,1.322,1.197,2.091,1.68c1.001-0.644,1.841-1.43,2.448-2.341
		H152.422z"/>
	<path fill="#FFFFFF" d="M174.153,8.242c1.68,1.52,3.77,3.717,4.699,5.183l-1.394,1.036c-0.269-0.447-0.626-0.947-1.036-1.466
		c-9.828,0.519-10.972,0.555-11.775,0.84c-0.071-0.339-0.357-1.161-0.536-1.626c0.429-0.071,0.876-0.446,1.465-1.019
		c0.626-0.589,2.645-2.787,3.949-4.949l1.662,0.715c-1.287,1.805-2.806,3.538-4.271,4.932l8.309-0.34
		c-0.769-0.857-1.591-1.715-2.359-2.43L174.153,8.242z M165.451,15.193h11.579v7.576h-1.77v-0.911h-8.13v0.946h-1.68V15.193z
		 M167.131,16.783v3.467h8.13v-3.467H167.131z"/>
</g>
<g>
</g>
<g>
</g>
<g>
</g>
<g>
</g>
<g>
</g>
<g>
</g>
</svg>
